<svg width="24" height="24" viewBox="0 0 24 24" fill="none" xmlns="http://www.w3.org/2000/svg">
<g clip-path="url(#clip0_119_1155)">
<path d="M16.1582 12.6H23.97C23.7452 15.6203 22.3849 18.4441 20.162 20.5048C17.9392 22.5655 15.0182 23.7107 11.985 23.7107C8.95178 23.7107 6.03076 22.5655 3.80791 20.5048C1.58506 18.4441 0.224793 15.6203 0 12.6H7.84176C7.99337 13.5927 8.49618 14.4983 9.25904 15.1527C10.0219 15.8071 10.9943 16.1668 12 16.1668C13.0057 16.1668 13.9781 15.8071 14.741 15.1527C15.5038 14.4983 16.0066 13.5927 16.1582 12.6Z" fill="white"/>
<path d="M7.84176 11.4H0C0.168278 8.33573 1.50591 5.4523 3.73789 3.34253C5.96986 1.23276 8.92653 0.0570068 12 0.0570068C15.0735 0.0570068 18.0301 1.23276 20.2621 3.34253C22.4941 5.4523 23.8317 8.33573 24 11.4H16.1883C16.0367 10.4073 15.5339 9.50166 14.771 8.8473C14.0082 8.19294 13.0357 7.83315 12.03 7.83315C11.0244 7.83315 10.0519 8.19294 9.28908 8.8473C8.52623 9.50166 8.02342 10.4073 7.87181 11.4H7.84176Z" fill="white"/>
<path d="M15.0225 12C15.024 12.2016 15.0038 12.4027 14.9624 12.6C14.8245 13.2782 14.456 13.8879 13.9194 14.3258C13.3828 14.7638 12.7111 15.003 12.018 15.003C11.325 15.003 10.6532 14.7638 10.1166 14.3258C9.58001 13.8879 9.21153 13.2782 9.07361 12.6C8.99267 12.2041 8.99267 11.7959 9.07361 11.4C9.21153 10.7218 9.58001 10.1121 10.1166 9.67416C10.6532 9.23622 11.325 8.99698 12.018 8.99698C12.7111 8.99698 13.3828 9.23622 13.9194 9.67416C14.456 10.1121 14.8245 10.7218 14.9624 11.4C15.0038 11.5973 15.024 11.7984 15.0225 12Z" fill="white"/>
</g>
<defs>
<clipPath id="clip0_119_1155">
<rect width="24" height="24" fill="white"/>
</clipPath>
</defs>
</svg>
